<?xml version="1.0" encoding="utf-8"?>
<!-- Generator: Adobe Illustrator 25.0.1, SVG Export Plug-In . SVG Version: 6.00 Build 0)  -->
<svg version="1.1" id="Livello_1" xmlns="http://www.w3.org/2000/svg" xmlns:xlink="http://www.w3.org/1999/xlink" x="0px" y="0px"
	 viewBox="0 0 1920 536" style="enable-background:new 0 0 1920 536;" xml:space="preserve">
<style type="text/css">
	.st0{fill:#EDEDED;}
	.st1{fill:#141414;}
	.st2{fill:#FF0024;}
</style>
<g>
	<path class="st0" d="M180.21,218.06h170.35v-42.65H189.99c-15.43,0-28.09,5.67-37.97,17c-9.89,11.34-14.83,24.83-14.83,40.5
		c0,15.67,4.82,28.93,14.47,39.78c0.08,0.09,0.16,0.18,0.24,0.27c9.3,10.5,22.85,16.25,36.88,16.25h128.08v29.79H146.24v42.29H306.8
		c15.43,0,28.21-5.76,38.33-17.3c9.4-11.05,14.1-24.39,14.1-40.02c0-15.62-4.71-28.96-14.13-40.02c-0.07-0.09-0.15-0.17-0.23-0.25
		c-9.11-10.24-22.34-15.85-36.05-15.85H180.21V218.06z"/>
	<polygon class="st0" points="458.15,218.81 541.08,218.81 541.08,361.3 584.48,361.3 584.48,218.81 668.38,218.81 668.38,175.42 
		458.15,175.42 	"/>
	<path class="st0" d="M950.6,175.42H775V361.3h43.4l-0.22-142.61h141.67v38.87h-118.3l92.58,103.74h59.31l-54.61-60.75h11.79
		c16.64,0,29.77-6.51,39.42-19.53c8.92-11.81,13.38-26.16,13.38-43.03c0-16.87-4.46-31.22-13.38-43.03
		C980.38,181.93,967.24,175.42,950.6,175.42z"/>
	<rect x="1114.87" y="175.42" class="st0" width="43.4" height="185.88"/>
	<polygon class="st0" points="1378.01,302.71 1312.56,175.42 1264.1,175.42 1359.21,361.3 1396.09,361.3 1490.84,175.42 
		1442.38,175.42 	"/>
	<polygon class="st0" points="1782.81,218.81 1782.81,175.42 1597.46,175.42 1597.46,361.3 1782.81,361.3 1782.81,317.9 
		1640.86,317.9 1640.86,290.06 1782.81,290.06 1782.81,246.66 1640.86,246.66 1640.86,218.81 	"/>
</g>
<g>
	<path class="st1" d="M180.21,894.06h170.35v-42.65H189.99c-15.43,0-28.09,5.67-37.97,17c-9.89,11.34-14.83,24.83-14.83,40.5
		c0,15.67,4.82,28.93,14.47,39.78c0.08,0.09,0.16,0.18,0.24,0.27c9.3,10.5,22.85,16.25,36.88,16.25h128.08v29.79H146.24v42.29H306.8
		c15.43,0,28.21-5.76,38.33-17.3c9.4-11.05,14.1-24.39,14.1-40.02c0-15.62-4.71-28.96-14.13-40.02c-0.07-0.09-0.15-0.17-0.23-0.25
		c-9.11-10.24-22.34-15.85-36.05-15.85H180.21V894.06z"/>
	<polygon class="st1" points="458.15,894.81 541.08,894.81 541.08,1037.3 584.48,1037.3 584.48,894.81 668.38,894.81 668.38,851.42 
		458.15,851.42 	"/>
	<path class="st1" d="M950.6,851.42H775v185.88h43.4l-0.22-142.61h141.67v38.87h-118.3l92.58,103.74h59.31l-54.61-60.75h11.79
		c16.64,0,29.77-6.51,39.42-19.53c8.92-11.81,13.38-26.16,13.38-43.03c0-16.87-4.46-31.22-13.38-43.03
		C980.38,857.93,967.24,851.42,950.6,851.42z"/>
	<rect x="1114.87" y="851.42" class="st1" width="43.4" height="185.88"/>
	<polygon class="st1" points="1378.01,978.71 1312.56,851.42 1264.1,851.42 1359.21,1037.3 1396.09,1037.3 1490.84,851.42 
		1442.38,851.42 	"/>
	<polygon class="st1" points="1782.81,894.81 1782.81,851.42 1597.46,851.42 1597.46,1037.3 1782.81,1037.3 1782.81,993.9 
		1640.86,993.9 1640.86,966.06 1782.81,966.06 1782.81,922.66 1640.86,922.66 1640.86,894.81 	"/>
</g>
<g>
	<path class="st2" d="M180.21-394.94h170.35v-42.65H189.99c-15.43,0-28.09,5.67-37.97,17c-9.89,11.34-14.83,24.83-14.83,40.5
		c0,15.67,4.82,28.93,14.47,39.78c0.08,0.09,0.16,0.18,0.24,0.27c9.3,10.5,22.85,16.25,36.88,16.25h128.08v29.79H146.24v42.29H306.8
		c15.43,0,28.21-5.76,38.33-17.3c9.4-11.05,14.1-24.39,14.1-40.02c0-15.62-4.71-28.96-14.13-40.02c-0.07-0.09-0.15-0.17-0.23-0.25
		c-9.11-10.24-22.34-15.86-36.05-15.86H180.21V-394.94z"/>
	<polygon class="st2" points="458.15,-394.19 541.08,-394.19 541.08,-251.7 584.48,-251.7 584.48,-394.19 668.38,-394.19 
		668.38,-437.58 458.15,-437.58 	"/>
	<path class="st2" d="M950.6-437.58H775v185.88h43.4l-0.22-142.61h141.67v38.87h-118.3l92.58,103.74h59.31l-54.61-60.75h11.79
		c16.64,0,29.77-6.51,39.42-19.53c8.92-11.81,13.38-26.16,13.38-43.03c0-16.87-4.46-31.22-13.38-43.03
		C980.38-431.07,967.24-437.58,950.6-437.58z"/>
	<rect x="1114.87" y="-437.58" class="st2" width="43.4" height="185.88"/>
	<polygon class="st2" points="1378.01,-310.29 1312.56,-437.58 1264.1,-437.58 1359.21,-251.7 1396.09,-251.7 1490.84,-437.58 
		1442.38,-437.58 	"/>
	<polygon class="st2" points="1782.81,-394.19 1782.81,-437.58 1597.46,-437.58 1597.46,-251.7 1782.81,-251.7 1782.81,-295.1 
		1640.86,-295.1 1640.86,-322.94 1782.81,-322.94 1782.81,-366.34 1640.86,-366.34 1640.86,-394.19 	"/>
</g>
</svg>
