<svg enable-background="new 0 0 1920 536" viewBox="0 0 1920 536" xmlns="http://www.w3.org/2000/svg"><g fill="#ededed"><path d="m180.21 218.06h170.35v-42.65h-160.57c-15.43 0-28.09 5.67-37.97 17-9.89 11.34-14.83 24.83-14.83 40.5s4.82 28.93 14.47 39.78l.24.27c9.3 10.5 22.85 16.25 36.88 16.25h128.08v29.79h-170.62v42.29h160.56c15.43 0 28.21-5.76 38.33-17.3 9.4-11.05 14.1-24.39 14.1-40.02 0-15.62-4.71-28.96-14.13-40.02-.07-.09-.15-.17-.23-.25-9.11-10.24-22.34-15.85-36.05-15.85h-128.61z"/><path d="m458.15 218.81h82.93v142.49h43.4v-142.49h83.9v-43.39h-210.23z"/><path d="m950.6 175.42h-175.6v185.88h43.4l-.22-142.61h141.67v38.87h-118.3l92.58 103.74h59.31l-54.61-60.75h11.79c16.64 0 29.77-6.51 39.42-19.53 8.92-11.81 13.38-26.16 13.38-43.03s-4.46-31.22-13.38-43.03c-9.66-13.03-22.8-19.54-39.44-19.54z"/><path d="m1114.87 175.42h43.4v185.88h-43.4z"/><path d="m1378.01 302.71-65.45-127.29h-48.46l95.11 185.88h36.88l94.75-185.88h-48.46z"/><path d="m1782.81 218.81v-43.39h-185.35v185.88h185.35v-43.4h-141.95v-27.84h141.95v-43.4h-141.95v-27.85z"/></g><path d="m180.21 894.06h170.35v-42.65h-160.57c-15.43 0-28.09 5.67-37.97 17-9.89 11.34-14.83 24.83-14.83 40.5s4.82 28.93 14.47 39.78c.08.09.16.18.24.27 9.3 10.5 22.85 16.25 36.88 16.25h128.08v29.79h-170.62v42.29h160.56c15.43 0 28.21-5.76 38.33-17.3 9.4-11.05 14.1-24.39 14.1-40.02 0-15.62-4.71-28.96-14.13-40.02-.07-.09-.15-.17-.23-.25-9.11-10.24-22.34-15.85-36.05-15.85h-128.61z" fill="#141414"/><path d="m458.15 894.81h82.93v142.49h43.4v-142.49h83.9v-43.39h-210.23z" fill="#141414"/><path d="m950.6 851.42h-175.6v185.88h43.4l-.22-142.61h141.67v38.87h-118.3l92.58 103.74h59.31l-54.61-60.75h11.79c16.64 0 29.77-6.51 39.42-19.53 8.92-11.81 13.38-26.16 13.38-43.03s-4.46-31.22-13.38-43.03c-9.66-13.03-22.8-19.54-39.44-19.54z" fill="#141414"/><path d="m1114.87 851.42h43.4v185.88h-43.4z" fill="#141414"/><path d="m1378.01 978.71-65.45-127.29h-48.46l95.11 185.88h36.88l94.75-185.88h-48.46z" fill="#141414"/><path d="m1782.81 894.81v-43.39h-185.35v185.88h185.35v-43.4h-141.95v-27.84h141.95v-43.4h-141.95v-27.85z" fill="#141414"/><path d="m180.21-394.94h170.35v-42.65h-160.57c-15.43 0-28.09 5.67-37.97 17-9.89 11.34-14.83 24.83-14.83 40.5s4.82 28.93 14.47 39.78c.08.09.16.18.24.27 9.3 10.5 22.85 16.25 36.88 16.25h128.08v29.79h-170.62v42.29h160.56c15.43 0 28.21-5.76 38.33-17.3 9.4-11.05 14.1-24.39 14.1-40.02 0-15.62-4.71-28.96-14.13-40.02-.07-.09-.15-.17-.23-.25-9.11-10.24-22.34-15.86-36.05-15.86h-128.61z" fill="#ff0024"/><path d="m458.15-394.19h82.93v142.49h43.4v-142.49h83.9v-43.39h-210.23z" fill="#ff0024"/><path d="m950.6-437.58h-175.6v185.88h43.4l-.22-142.61h141.67v38.87h-118.3l92.58 103.74h59.31l-54.61-60.75h11.79c16.64 0 29.77-6.51 39.42-19.53 8.92-11.81 13.38-26.16 13.38-43.03s-4.46-31.22-13.38-43.03c-9.66-13.03-22.8-19.54-39.44-19.54z" fill="#ff0024"/><path d="m1114.87-437.58h43.4v185.88h-43.4z" fill="#ff0024"/><path d="m1378.01-310.29-65.45-127.29h-48.46l95.11 185.88h36.88l94.75-185.88h-48.46z" fill="#ff0024"/><path d="m1782.81-394.19v-43.39h-185.35v185.88h185.35v-43.4h-141.95v-27.84h141.95v-43.4h-141.95v-27.85z" fill="#ff0024"/></svg>