<?xml version="1.0" encoding="UTF-8"?>
<svg width="100px" height="100px" viewBox="0 0 100 100" version="1.1" xmlns="http://www.w3.org/2000/svg" xmlns:xlink="http://www.w3.org/1999/xlink">
    <!-- Generator: Sketch 61 (89581) - https://sketch.com -->
    <title>bown belt</title>
    <desc>Created with Sketch.</desc>
    <g id="bown-belt" stroke="none" stroke-width="1" fill="none" fill-rule="evenodd">
        <g id="Group" transform="translate(3.000000, 12.000000)">
            <path d="M16.9,57.5 L26.2,40.1 L26.2,59.3 L68.5,59.3 L68.5,40.1 L77.7,57.6 L94,50.6 L76,10.4 C74.8,7.8 72.7,5.6 70.1,4.4 L62.1,0.7 L52.3,0.7 L47.5,11.6 L42,0.6 L33.1,0.6 L25.8,3.4 C22.8,4.5 20.4,6.8 19.1,9.7 L0.7,51 L16.9,57.5 Z" id="Path" stroke="#000000" stroke-width="1.3" fill="#FFFFFF" fill-rule="nonzero" stroke-linecap="round" stroke-linejoin="round"></path>
            <polyline id="Path" stroke="#000000" stroke-width="1.3" stroke-linecap="round" stroke-linejoin="round" points="33.7 0.6 43 25.3 47.5 11.5"></polyline>
            <line x1="60.9" y1="0.6" x2="43.3" y2="49.8" id="Path" stroke="#000000" stroke-width="1.3" stroke-linecap="round" stroke-linejoin="round"></line>
            <line x1="43" y1="25.3" x2="34.7" y2="50.5" id="Path" stroke="#000000" stroke-width="1.3" stroke-linecap="round" stroke-linejoin="round"></line>
            <polygon id="Path" stroke="#000000" stroke-width="1.3" fill="#70462E" fill-rule="nonzero" stroke-linecap="round" stroke-linejoin="round" points="26.8 49.8 68.4 49.8 68.4 59.3 26.2 59.3 26.2 49.8"></polygon>
            <line x1="91.4" y1="45" x2="74.9" y2="52.4" id="Path" stroke="#000000" stroke-width="1.3" stroke-linecap="round" stroke-linejoin="round"></line>
            <line x1="3.4" y1="45" x2="19.6" y2="52.4" id="Path" stroke="#000000" stroke-width="1.3" stroke-linecap="round" stroke-linejoin="round"></line>
            <polygon id="Path" stroke="#000000" stroke-width="1.3" fill="#70462E" fill-rule="nonzero" stroke-linecap="round" stroke-linejoin="round" points="21.2 73.3 38.7 55.3 44.5 57.6 27.2 76.6"></polygon>
            <polygon id="Path" fill="#000000" fill-rule="nonzero" points="26.1 68.3 31.7 71.6 37.8 65 32 62.2"></polygon>
            <polygon id="Path" stroke="#000000" stroke-width="1.3" fill="#70462E" fill-rule="nonzero" stroke-linecap="round" stroke-linejoin="round" points="51.2 58.8 65.8 75.7 71.2 73 51.2 50.2"></polygon>
            <polygon id="Path" stroke="#000000" stroke-width="1.3" fill="#70462E" fill-rule="nonzero" stroke-linecap="round" stroke-linejoin="round" points="38.7 55.3 40.3 49.3 45.8 50.2 44.5 57.6"></polygon>
            <polygon id="Path" stroke="#000000" stroke-width="1.3" fill="#70462E" fill-rule="nonzero" stroke-linecap="round" stroke-linejoin="round" points="45.8 50.2 51.2 51.2 51.2 58.5 44 58.2 44.5 57.6"></polygon>
        </g>
    </g>
</svg>