<?xml version="1.0" encoding="UTF-8"?>
<svg width="100px" height="100px" viewBox="0 0 100 100" version="1.1" xmlns="http://www.w3.org/2000/svg" xmlns:xlink="http://www.w3.org/1999/xlink">
    <!-- Generator: Sketch 61 (89581) - https://sketch.com -->
    <title>white belt</title>
    <desc>Created with Sketch.</desc>
    <g id="white-belt" stroke="none" stroke-width="1" fill="none" fill-rule="evenodd">
        <g id="Group" transform="translate(3.000000, 12.000000)">
            <path d="M16.4,57.5 L25.7,40.1 L25.7,59.3 L67.9,59.3 L67.9,40.1 L77.1,57.6 L93.4,50.6 L75.4,10.4 C74.2,7.8 72.1,5.6 69.5,4.4 L61.5,0.7 L51.7,0.7 L47,11.5 L41.5,0.6 L32.6,0.6 L25.3,3.4 C22.3,4.5 19.9,6.8 18.6,9.7 L0.2,51 L16.4,57.5 Z" id="Path" stroke="#000000" stroke-width="1.3" fill="#FFFFFF" fill-rule="nonzero" stroke-linecap="round" stroke-linejoin="round"></path>
            <polyline id="Path" stroke="#000000" stroke-width="1.3" stroke-linecap="round" stroke-linejoin="round" points="33.2 0.6 42.5 25.3 47 11.5"></polyline>
            <line x1="60.4" y1="0.6" x2="42.8" y2="49.8" id="Path" stroke="#000000" stroke-width="1.3" stroke-linecap="round" stroke-linejoin="round"></line>
            <line x1="42.5" y1="25.3" x2="34.2" y2="50.5" id="Path" stroke="#000000" stroke-width="1.3" stroke-linecap="round" stroke-linejoin="round"></line>
            <polygon id="Path" stroke="#000000" stroke-width="1.3" fill="#FFFFFF" fill-rule="nonzero" stroke-linecap="round" stroke-linejoin="round" points="26.3 49.8 67.9 49.8 67.9 59.3 25.7 59.3 25.7 49.8"></polygon>
            <line x1="90.9" y1="45" x2="74.4" y2="52.4" id="Path" stroke="#000000" stroke-width="1.3" stroke-linecap="round" stroke-linejoin="round"></line>
            <line x1="2.9" y1="45" x2="19.1" y2="52.4" id="Path" stroke="#000000" stroke-width="1.3" stroke-linecap="round" stroke-linejoin="round"></line>
            <polygon id="Path" stroke="#000000" stroke-width="1.3" fill="#FFFFFF" fill-rule="nonzero" stroke-linecap="round" stroke-linejoin="round" points="20.7 73.3 38.2 55.3 44 57.6 26.7 76.6"></polygon>
            <polygon id="Path" fill="#000000" fill-rule="nonzero" points="25.6 68.3 31.2 71.6 37.3 65 31.5 62.2"></polygon>
            <polygon id="Path" stroke="#000000" stroke-width="1.3" fill="#FFFFFF" fill-rule="nonzero" stroke-linecap="round" stroke-linejoin="round" points="50.7 58.8 65.3 75.7 70.7 73 50.7 50.2"></polygon>
            <polygon id="Path" stroke="#000000" stroke-width="1.3" fill="#FFFFFF" fill-rule="nonzero" stroke-linecap="round" stroke-linejoin="round" points="38.2 55.3 39.8 49.3 45.3 50.2 44 57.6"></polygon>
            <polygon id="Path" stroke="#000000" stroke-width="1.3" fill="#FFFFFF" fill-rule="nonzero" stroke-linecap="round" stroke-linejoin="round" points="45.3 50.2 50.7 51.2 50.7 58.5 43.5 58.2 44 57.6"></polygon>
        </g>
    </g>
</svg>